<?xml version="1.0" encoding="utf-8"?>
<!-- Uploaded to: SVG Repo, www.svgrepo.com, Generator: SVG Repo Mixer Tools -->
<svg width="800px" height="800px" viewBox="0 -3.55 63.444 63.444" xmlns="http://www.w3.org/2000/svg">
  <g id="T-shirt" transform="translate(-112.897 -153.954)">
    <g id="Group_133" data-name="Group 133">
      <path id="Path_96" data-name="Path 96" d="M158.675,210.3H130.312c-2.356,0-2.356-2.267-2.356-3.357l.736-34.586-5.014,4.5a1.573,1.573,0,0,1-1.12.447,3.946,3.946,0,0,1-2.47-1.477l-5.637-4.865c-.754-.75-2.371-2.368-1.055-3.686l7.419-7.42c.495-.6,5.069-5.909,12.265-5.909h3.649a1,1,0,0,1,.8.4c.032.042,3.205,4.167,6.774,4.167.089,0,.192.01.361.01,1.175,0,5.13-.286,6.675-3.961a1,1,0,0,1,.922-.612h3.65c7.2,0,11.769,5.309,12.264,5.909l7.418,7.42c1,1,1,1.636.009,2.628l-7.731,6.952a1.787,1.787,0,0,1-1.279.717,1.846,1.846,0,0,1-1.311-.746l-4.983-4.472.737,34.564C161.032,208.038,161.032,210.3,158.675,210.3ZM130.1,208.283a.891.891,0,0,0,.215.022h28.363a.57.57,0,0,0,.227-.031,4.081,4.081,0,0,0,.13-1.326l-.785-36.85a1,1,0,0,1,1.667-.766l6.676,5.994,7.484-6.731-7.353-7.354a.713.713,0,0,1-.073-.082c-.042-.052-4.257-5.205-10.74-5.205H152.9c-2.6,5.06-8.669,4.563-8.67,4.56h0c-3.786,0-6.969-3.376-7.969-4.56H133.08c-6.483,0-10.7,5.153-10.74,5.205a.827.827,0,0,1-.074.082l-7.3,7.3a6.575,6.575,0,0,0,.833.957l5.639,4.866a6.994,6.994,0,0,0,1.03.9l6.6-5.929a1,1,0,0,1,1.668.766l-.785,36.871a3.818,3.818,0,0,0,.14,1.314Z" fill="#231f20"/>
    </g>
    <g id="Group_134" data-name="Group 134">
      <path id="Path_97" data-name="Path 97" d="M136.687,154.954" fill="none" stroke="#231f20" stroke-miterlimit="10" stroke-width="2"/>
    </g>
    <g id="Group_135" data-name="Group 135">
      <path id="Path_98" data-name="Path 98" d="M144.8,156.013a31.221,31.221,0,0,1-8.26-1.092l.288-.958c.078.025,7.889,2.317,15.278,0l.3.954A25.542,25.542,0,0,1,144.8,156.013Z" fill="#231f20"/>
    </g>
    <g id="Group_136" data-name="Group 136">
      <path id="Path_99" data-name="Path 99" d="M150.01,179.116a.529.529,0,0,1-.467-.294c-.149-.318.032-.537.333-.9.339-.409,1.24-1.5,1.085-2.083-.017-.065-.069-.262-.5-.433.011.009-.04,0-.113,0a3.579,3.579,0,0,0-2.363,1.165.514.514,0,0,1-.442.126.5.5,0,0,1-.358-.288c-.076-.166-.3-.481-.483-.481-.152,0-.44.2-.791.761l-1.239,2.171a.5.5,0,0,1-.892-.048c-.587-1.341-1.553-2.847-2.054-2.951a1.911,1.911,0,0,0-.341.525.5.5,0,0,1-.351.292.5.5,0,0,1-.442-.116c-.513-.458-2.388-1.848-2.907-.942-.382.665.529,1.922,1.09,2.5a.5.5,0,0,1,.239.426.512.512,0,0,1-.509.5.407.407,0,0,1-.142-.017c-.233-.063-5.725-1.593-5.889-5.457-.011-.129-.19-3.577,7.265-5.64a.556.556,0,0,1,.8.357.477.477,0,0,1-.279.534c-.452.558-.96,1.442-.609,1.758.762.686,1.573.857,2.175.413.431-.319.622-1.681.616-2.5l.07-.7a.5.5,0,0,1,.917-.22,7.519,7.519,0,0,1,.394.669,2.281,2.281,0,0,1,.5,0l.294.038a3.667,3.667,0,0,1,.452-.72.514.514,0,0,1,.354-.144c.19,0,.7,0,.7,1.91,0,.195.235,1.9,1.079,1.9,1.3-.106,1.506-.489,1.654-.768.133-.25.329-.91-.707-1.676a.537.537,0,0,1-.193-.579.555.555,0,0,1,.51-.352c.729,0,7.057,1.849,7.51,5.327a3.92,3.92,0,0,1-1.081,3.146,9.467,9.467,0,0,1-4.874,2.781Zm.334-4.706a1.808,1.808,0,0,1,.377.033,1.719,1.719,0,0,1,1.207,1.142,2.674,2.674,0,0,1-.576,2.054A8.415,8.415,0,0,0,154.2,175.6a2.927,2.927,0,0,0,.775-2.28c-.258-1.977-3.331-3.438-5.19-4.086a1.95,1.95,0,0,1-.056,1.706c-.315.594-.823,1.163-2.388,1.293-1.817.162-2.228-2.306-2.228-2.9,0-.018,0-.04,0-.064a.483.483,0,0,1-.3.053l-.632-.083a4.5,4.5,0,0,0-.6.048.569.569,0,0,1-.175,0,3.693,3.693,0,0,1-.987,2.517,2.658,2.658,0,0,1-3.439-.474,1.666,1.666,0,0,1-.188-2.06c-5.355,1.8-5.328,4.231-5.327,4.258.084,1.975,2.082,3.257,3.564,3.94a2.364,2.364,0,0,1-.219-2.339,1.541,1.541,0,0,1,1.4-.813,4.893,4.893,0,0,1,2.571,1.125,1.248,1.248,0,0,1,.956-.571,1.614,1.614,0,0,1,.184.019c.923.192,1.812,1.615,2.347,2.652l.776-1.359c.529-.845,1.065-1.247,1.649-1.247a1.387,1.387,0,0,1,1.044.528A4.232,4.232,0,0,1,150.344,174.41Z" fill="#231f20"/>
    </g>
  </g>
</svg>